<svg width="45" height="42" viewBox="0 0 45 42" fill="none" xmlns="http://www.w3.org/2000/svg">
<path d="M33.9166 16.2355C33.9166 16.7011 33.5189 17.0786 33.028 17.0786L11.2774 17.0786C10.7864 17.0786 10.3887 16.7011 10.3887 16.2355C10.3887 15.7695 10.7864 15.392 11.2774 15.392L33.028 15.392C33.5189 15.392 33.9166 15.7695 33.9166 16.2355ZM33.028 24.5001L11.2774 24.5001C10.7864 24.5001 10.3887 24.8776 10.3887 25.3436C10.3887 25.8092 10.7864 26.1867 11.2774 26.1867L33.028 26.1867C33.5189 26.1867 33.9166 25.8092 33.9166 25.3436C33.9166 24.8776 33.5189 24.5001 33.028 24.5001ZM43.8325 20.7896C43.8385 23.7286 43.1822 26.6344 41.9073 29.3126L44.2766 39.2921C44.339 39.5589 44.2619 39.8374 44.069 40.0401C43.8784 40.2433 43.5959 40.3462 43.3112 40.3157L32.1636 39.191L32.1631 39.191C27.9301 41.3165 23.0794 42.0671 18.3545 41.3283C13.6292 40.5898 9.2887 38.4019 5.9966 35.0999C2.70509 31.7983 0.643955 27.5638 0.127702 23.0444C-0.388504 18.5248 0.669175 13.9695 3.13904 10.0748C5.6085 6.17996 9.35419 3.16032 13.8035 1.47769C18.2524 -0.204931 23.1596 -0.458251 27.7745 0.757126C32.3896 1.97206 36.4581 4.5884 39.3579 8.20607C42.2581 11.8237 43.8297 16.2435 43.8329 20.7895L43.8325 20.7896ZM40.1657 28.8628C41.4149 26.3371 42.0601 23.5799 42.0551 20.7896C42.056 16.6013 40.6075 12.5294 37.9328 9.19827C35.2576 5.86739 31.5045 3.46286 27.25 2.3535C22.9953 1.24453 18.4744 1.49212 14.383 3.05881C10.291 4.62549 6.85437 7.42406 4.60078 11.0248C2.34765 14.6255 1.4025 18.829 1.91088 22.9888C2.41927 27.1487 4.35282 31.0354 7.4146 34.0511C10.476 37.0667 14.4964 39.0445 18.8575 39.6805C23.2187 40.3165 27.679 39.5754 31.5528 37.5716C31.7122 37.4901 31.894 37.4569 32.0741 37.4757L42.2623 38.5158L40.106 29.4078L40.106 29.4082C40.0615 29.2251 40.0826 29.0333 40.1653 28.8624L40.1657 28.8628Z" fill="black"/>
</svg>
