<svg width="25" height="27" viewBox="0 0 25 27" fill="none" xmlns="http://www.w3.org/2000/svg">
<path d="M12.3547 1.75846e-09C11.1917 1.59294e-09 10.225 1.03854 10.225 2.32458L10.225 11.1608L2.12968 11.1608C0.951469 11.1608 -1.73871e-09 12.2159 -1.9217e-09 13.5016C-2.10238e-09 14.771 0.951469 15.8262 2.12968 15.8262L10.225 15.8262L10.225 24.6624C10.225 25.9484 11.1917 26.987 12.3547 26.987C13.5329 26.987 14.4993 25.9484 14.4993 24.6624L14.4993 15.8262L22.5947 15.8262C23.7729 15.8262 24.7243 14.771 24.7243 13.5016C24.7243 12.2156 23.7729 11.1608 22.5947 11.1608L14.4993 11.1608L14.4993 2.32458C14.4993 1.03854 13.5326 1.92611e-09 12.3547 1.75846e-09Z" fill="black"/>
</svg>
